<svg height="80" viewBox="0 0 512 512" width="80" xmlns="http://www.w3.org/2000/svg"><g><path d="m80 80 14.02 252.3a79.96 79.96 0 0 0 29.9 58.03l132.08 105.67 132.08-105.67a79.96 79.96 0 0 0 29.9-58.03l14.02-252.3-176-64zm306.03 250.53a48.03 48.03 0 0 1 -17.94 34.82l-112.09 89.67-112.09-89.67a48.03 48.03 0 0 1 -17.94-34.82l-12.7-228.58 142.73-51.9 142.73 51.9z" fill="#ffffff"/><path d="m160 240a96 96 0 1 0 96-96 96 96 0 0 0 -96 96zm168 0a72 72 0 1 1 -72-72 72.006 72.006 0 0 1 72 72z" fill="#ffffff"/><g fill="#004fac"><path d="m272 224a8 8 0 0 0 0-16h-8a8 8 0 0 0 -16 0h-8a8 8 0 0 0 -8 8v24a8 8 0 0 0 8 8h24v8h-24a8 8 0 0 0 0 16h8a8 8 0 0 0 16 0h8a8 8 0 0 0 8-8v-24a8 8 0 0 0 -8-8h-24v-8z"/><path d="m256 160a80 80 0 1 0 80 80 80.091 80.091 0 0 0 -80-80zm0 144a64 64 0 1 1 64-64 64.072 64.072 0 0 1 -64 64z"/><path d="m434.73 72.48-176-64a8 8 0 0 0 -5.46 0l-176 64a8.009 8.009 0 0 0 -5.26 7.96l14.02 252.31a88.1 88.1 0 0 0 32.89 63.83l132.08 105.67a8.018 8.018 0 0 0 10 0l132.08-105.67a88.1 88.1 0 0 0 32.89-63.83l14.02-252.31a8.009 8.009 0 0 0 -5.26-7.96zm-24.73 259.38a72.116 72.116 0 0 1 -26.92 52.23l-127.08 101.66-127.08-101.66a72.116 72.116 0 0 1 -26.92-52.23l-13.68-246.37 167.68-60.98 167.68 60.98z"/><path d="m401.46 94.43-142.73-51.9a8 8 0 0 0 -5.46 0l-142.73 51.9a8.013 8.013 0 0 0 -5.26 7.97l12.7 228.57a56.042 56.042 0 0 0 20.93 40.62l112.09 89.68a8.018 8.018 0 0 0 10 0l112.09-89.68a56.042 56.042 0 0 0 20.93-40.62l12.7-228.57a8.013 8.013 0 0 0 -5.26-7.97zm-153.46 343.94-99.09-79.27a40.017 40.017 0 0 1 -14.95-29.02l-12.37-222.64 126.41-45.97v74.83a104.009 104.009 0 0 0 0 207.4zm8-110.37a88 88 0 1 1 88-88 88.1 88.1 0 0 1 -88 88zm122.04 2.08a40.017 40.017 0 0 1 -14.95 29.02l-99.09 79.27v-94.67a104.009 104.009 0 0 0 0-207.4v-74.83l126.41 45.97z"/></g></g></svg>